<svg version="1.1" id="Layer_1" xmlns="http://www.w3.org/2000/svg" xmlns:xlink="http://www.w3.org/1999/xlink" x="0px" y="0px"
	 width="100%" viewBox="0 0 1748 1240" enable-background="new 0 0 1748 1240" xml:space="preserve">
<path fill="#000000" opacity="1.000000" stroke="none" 
	d="
M1092.000000,1241.000000 
	C728.000061,1241.000000 364.500122,1241.000000 1.000146,1241.000000 
	C1.000098,827.666809 1.000098,414.333618 1.000049,1.000313 
	C583.666443,1.000208 1166.332886,1.000208 1748.999512,1.000104 
	C1748.999634,414.333008 1748.999634,827.666016 1748.999756,1240.999512 
	C1530.166626,1241.000000 1311.333374,1241.000000 1092.000000,1241.000000 
M1229.169312,729.352234 
	C1229.051880,729.148987 1228.934326,728.945740 1228.817139,728.023987 
	C1230.298950,724.947388 1231.780762,721.870789 1233.379395,718.551575 
	C1231.418579,718.381470 1230.448486,718.297302 1229.329590,718.200195 
	C1230.399170,715.758362 1231.294067,713.715454 1232.188965,711.672546 
	C1231.941772,711.546997 1231.694702,711.421448 1231.447510,711.295959 
	C1230.202026,713.266235 1228.956665,715.236572 1227.711182,717.206909 
	C1227.342041,716.782410 1226.972778,716.357849 1226.603638,715.933289 
	C1225.466675,716.798157 1224.084717,717.470825 1223.231567,718.558289 
	C1216.657349,726.938416 1210.027222,735.352783 1199.588257,739.114868 
	C1193.646240,741.256409 1187.405396,742.596985 1181.258789,744.137390 
	C1171.994385,746.459290 1164.749756,742.802124 1159.196777,735.725159 
	C1150.907593,725.160767 1147.205688,713.362732 1151.947388,700.151123 
	C1154.782959,692.249878 1158.535522,684.816467 1165.058105,679.064636 
	C1167.494141,676.916382 1169.920898,676.738281 1171.864014,678.661743 
	C1172.712524,679.501709 1171.783936,682.109314 1171.712769,683.916199 
	C1171.672241,684.946167 1171.445679,686.093323 1171.799072,686.992920 
	C1173.380371,691.019348 1172.226807,693.788818 1168.321167,695.530396 
	C1166.534546,696.327026 1164.667847,697.020935 1163.034302,698.068420 
	C1159.207153,700.522339 1155.212524,704.476868 1156.497681,708.514343 
	C1161.282715,723.545532 1176.866211,730.326172 1190.067627,725.132263 
	C1194.899902,723.231018 1199.549805,720.644897 1203.883179,717.768799 
	C1207.223755,715.551575 1210.455566,712.773438 1212.817627,709.568115 
	C1216.811523,704.148438 1219.307251,697.876648 1219.908081,691.061646 
	C1220.396729,685.518921 1224.646851,679.783020 1219.171753,674.439880 
	C1218.714966,673.994141 1219.104980,672.785461 1218.839600,672.022278 
	C1216.606201,665.595825 1215.394897,658.493591 1211.810913,652.923340 
	C1204.238892,641.154602 1192.759521,633.674500 1179.602661,629.231750 
	C1175.040527,627.691223 1169.735352,626.768921 1165.046265,627.455139 
	C1142.453491,630.761475 1125.883057,643.275085 1113.418701,662.114929 
	C1101.971680,679.416870 1097.308960,698.301147 1099.247803,718.727173 
	C1099.937866,725.997009 1101.324951,733.517456 1104.115723,740.205017 
	C1109.915771,754.104248 1117.832031,766.576111 1130.391479,775.924072 
	C1142.473022,784.916443 1155.377319,790.247131 1170.484131,791.019714 
	C1184.361206,791.729248 1196.940552,787.687317 1208.738892,781.352661 
	C1228.700073,770.635193 1238.785156,752.215210 1245.846436,730.906494 
	C1245.846436,728.060486 1245.846436,725.214478 1245.846436,722.006775 
	C1246.805298,720.045227 1248.063599,717.470886 1249.322021,714.896606 
	C1249.079834,714.776733 1248.837769,714.656921 1248.595581,714.537048 
	C1247.839844,715.058838 1247.083984,715.580627 1246.242188,716.161865 
	C1245.993530,715.272888 1245.776123,714.495667 1245.406006,713.172302 
	C1243.959351,716.375183 1242.696289,719.171326 1241.433350,721.967468 
	C1241.056030,721.863525 1240.678711,721.759583 1240.301514,721.655640 
	C1241.536133,717.094482 1242.770874,712.533386 1244.005493,707.972290 
	C1243.897095,707.977173 1243.788696,707.982117 1243.680420,707.987061 
	C1241.479858,712.983704 1239.279419,717.980286 1236.387695,723.130554 
	C1234.056519,725.426941 1231.725464,727.723267 1229.169312,729.352234 
M610.214417,628.074097 
	C646.758057,580.456787 695.245178,568.397217 752.223816,580.422546 
	C750.022949,578.006653 747.586731,576.347900 745.244507,574.565674 
	C737.052979,568.332520 729.114380,561.738464 720.662476,555.883789 
	C711.630310,549.627258 702.354126,543.645020 692.772644,538.278137 
	C678.946411,530.533752 664.951904,523.025818 650.648987,516.215576 
	C638.056274,510.219696 625.076233,504.963837 612.022827,500.027405 
	C596.010864,493.972076 579.867432,488.199921 563.546448,483.047974 
	C552.180237,479.460052 540.481506,476.836212 528.817505,474.306366 
	C517.446167,471.840027 505.955841,469.883698 494.467621,468.010681 
	C488.206940,466.989929 481.844391,466.586517 475.524017,465.941345 
	C465.278900,464.895569 455.045685,463.261505 444.779816,463.011566 
	C432.558258,462.714081 420.293243,463.367340 408.073547,464.069458 
	C396.624847,464.727295 385.135742,465.468597 373.800140,467.110321 
	C359.051361,469.246338 344.312531,471.766479 329.792664,475.095123 
	C306.845490,480.355743 284.747772,488.298706 263.603485,498.724487 
	C255.160873,502.887329 246.656540,506.997894 238.566971,511.785614 
	C228.274353,517.877075 218.048325,524.184998 208.396347,531.225891 
	C198.676300,538.316467 189.414246,546.108154 180.471283,554.169250 
	C172.043106,561.766296 163.646835,569.577576 156.411285,578.272217 
	C147.940109,588.451599 140.516510,599.537048 133.069016,610.521423 
	C128.432327,617.360046 123.930458,624.439331 120.536224,631.939270 
	C113.879730,646.647888 107.269615,661.474060 104.276779,677.499512 
	C102.279694,688.193115 100.120705,698.910706 99.112816,709.718140 
	C98.265556,718.803101 98.604301,728.053772 99.104088,737.193542 
	C99.583740,745.965210 100.378952,754.800415 102.075279,763.402588 
	C103.848297,772.393677 106.644447,781.208435 109.401009,789.972046 
	C111.571457,796.872192 113.710670,803.915955 117.027824,810.290222 
	C122.044815,819.931030 127.777573,829.239990 133.754333,838.329529 
	C140.039490,847.888062 146.290588,857.619995 153.813675,866.169983 
	C160.985703,874.320984 169.959763,880.857971 177.816605,888.441284 
	C190.384766,900.571960 205.485825,909.025330 220.751450,916.768433 
	C233.199692,923.082581 246.650040,927.960205 260.177155,931.461914 
	C274.697571,935.220825 289.755493,937.854370 304.709717,938.720703 
	C319.808868,939.595520 335.152191,938.454590 350.230896,936.778320 
	C362.022949,935.467468 373.715576,932.502502 385.196533,929.342834 
	C399.899353,925.296387 414.176941,919.736816 427.033508,911.432068 
	C438.033295,904.326843 448.788086,896.718872 458.922852,888.441345 
	C465.656128,882.942078 471.467041,876.170166 477.037262,869.427979 
	C483.433472,861.685974 489.587372,853.653320 494.979279,845.194153 
	C502.335388,833.653625 509.126434,821.729248 515.673096,809.704590 
	C520.250366,801.297180 524.003540,792.441650 528.142639,783.794800 
	C531.597473,776.577454 535.166260,769.413147 538.520874,762.149719 
	C541.468018,755.768433 544.059937,749.222351 547.039429,742.857056 
	C551.222229,733.921082 555.618469,725.085022 560.121887,716.786926 
	C562.466492,723.162415 564.008301,729.992432 567.310791,735.825623 
	C576.172485,751.478149 587.953308,764.827820 603.676575,773.828491 
	C618.670715,782.411865 634.537170,784.387756 650.550537,776.001892 
	C661.694275,770.166199 669.480286,760.909119 675.707275,750.284302 
	C678.815796,744.980530 681.335327,739.331482 683.919617,734.236084 
	C689.223938,744.242615 694.175903,754.340576 699.816223,764.038269 
	C707.344055,776.981384 718.536377,785.929871 732.364807,791.535339 
	C738.261414,793.925537 744.090149,793.071045 750.438660,792.391479 
	C767.096863,790.608337 779.629211,782.983765 788.861328,769.651855 
	C799.012329,754.992859 802.158447,738.106323 802.925476,720.650146 
	C803.779724,701.208313 802.313660,681.908142 798.698059,662.813232 
	C797.331238,655.594788 797.232239,647.516541 788.845337,642.684570 
	C787.534119,646.453369 785.880127,649.990601 785.086243,653.711426 
	C782.428101,666.169189 780.569153,678.816101 777.469604,691.155884 
	C774.399963,703.376587 770.640442,715.474854 766.312683,727.308350 
	C764.013550,733.594971 760.303223,739.514160 756.408325,745.017883 
	C753.667297,748.891296 748.522705,748.302490 745.994385,744.393738 
	C742.814758,739.478088 739.132202,734.630188 737.213562,729.205933 
	C731.992554,714.444763 727.571533,699.400024 722.861328,684.458923 
	C719.367798,673.377136 715.884583,662.219116 708.773376,652.837402 
	C695.390137,635.181030 671.644836,635.933960 660.118652,653.526001 
	C655.998718,659.814087 652.926514,666.853943 649.919556,673.786316 
	C647.266541,679.902527 645.504028,686.398315 643.111206,692.635498 
	C638.504395,704.643555 633.735046,716.589172 629.021729,728.556274 
	C627.858826,731.509033 625.401184,732.199097 623.078430,730.690613 
	C618.807251,727.916809 614.084045,725.237610 611.021057,721.357300 
	C607.224792,716.547913 603.517090,710.842041 602.337097,705.004761 
	C600.881287,697.803345 604.624329,691.110901 609.691223,685.559753 
	C612.764160,682.193176 616.149841,680.617249 621.442810,683.591919 
	C617.856934,671.697449 625.545288,663.702454 629.242065,654.654785 
	C631.685791,648.673828 631.356140,643.542297 628.653137,638.200073 
	C624.815186,630.614807 618.038086,628.597107 610.214417,628.074097 
M928.549011,785.973022 
	C940.147339,797.201355 954.603394,800.622192 967.373169,794.708984 
	C964.114990,792.053406 961.204956,789.421570 958.033569,787.155457 
	C952.796143,783.413086 949.194458,779.271301 949.791931,772.041138 
	C950.638062,761.803406 950.630737,751.492554 950.904846,741.210693 
	C951.294006,726.613586 951.731262,712.015808 951.887695,697.415466 
	C951.944092,692.151917 951.906860,686.726196 950.719543,681.653687 
	C949.406067,676.042175 947.296509,670.428711 944.469543,665.416260 
	C941.966858,660.978699 932.901367,658.671692 929.775085,661.080017 
	C923.507935,665.908081 917.501099,671.077148 911.461914,676.194153 
	C910.629517,676.899536 909.793701,678.067566 909.691284,679.094421 
	C908.847107,687.557373 907.991272,696.027527 907.525757,704.516663 
	C907.273376,709.117920 909.333679,714.478271 907.605469,718.232239 
	C904.219482,725.586792 897.900818,731.100342 890.064941,733.871887 
	C884.191956,735.949280 880.164307,733.507874 878.634094,727.302917 
	C875.863525,716.068542 878.531860,705.190002 885.243958,696.562805 
	C893.085388,686.484131 902.842041,677.861572 912.058960,668.907043 
	C914.927673,666.120056 919.616150,664.962219 921.917236,661.893188 
	C925.198853,657.516602 929.254700,653.512390 929.986877,647.250244 
	C931.059326,638.076721 928.012085,629.816406 917.369934,629.109497 
	C916.272644,629.036621 914.265747,628.803162 914.242249,628.516296 
	C913.940125,624.828979 911.159790,626.179382 909.338623,626.103455 
	C903.889343,625.876343 897.959961,627.223694 893.076599,625.509949 
	C883.984802,622.319092 876.301514,624.221436 869.302734,629.512695 
	C862.733032,634.479614 857.070129,640.630066 850.638000,645.798950 
	C843.430603,651.590698 838.218140,658.884155 834.222229,666.947876 
	C823.430054,688.726807 819.066406,711.757385 823.096252,735.895935 
	C827.042358,759.532288 839.405212,776.510010 863.261658,783.467957 
	C874.892700,786.860291 886.699524,787.433655 897.733276,781.845581 
	C904.244324,778.548035 909.959961,773.680115 916.033203,769.518555 
	C919.849304,774.589722 923.944031,780.031128 928.549011,785.973022 
M1074.979370,631.745361 
	C1075.477295,628.377075 1075.211792,624.623535 1076.667725,621.738647 
	C1078.459839,618.187561 1079.342896,614.910278 1079.054077,610.964966 
	C1078.303223,600.705261 1065.023804,588.420471 1056.475708,587.992676 
	C1045.688477,587.452942 1035.812256,589.363342 1026.985596,596.423950 
	C1018.713867,603.040588 1015.731934,611.674438 1015.039490,621.579224 
	C1014.809326,624.871033 1014.998352,628.205078 1015.213196,631.505615 
	C1015.264282,632.290894 1016.173523,633.030396 1016.715027,633.771179 
	C1017.441711,634.765381 1018.702881,635.667480 1018.855774,636.735046 
	C1020.046021,645.043884 1021.025085,653.382935 1022.069397,661.712585 
	C1021.642517,662.012146 1021.215576,662.311646 1020.788635,662.611145 
	C1019.138611,661.157166 1017.488586,659.703247 1015.497314,657.948669 
	C1014.778198,659.406921 1014.113708,660.754211 1013.216919,662.572754 
	C1010.309631,662.151794 1007.234375,661.315063 1004.179749,661.384705 
	C1001.604858,661.443542 998.876648,662.177185 996.529053,663.278625 
	C991.494141,665.640869 986.794128,668.735840 981.710266,670.969238 
	C976.063721,673.449768 974.543274,676.615234 978.153687,681.374390 
	C979.897644,683.673157 982.497009,685.953918 985.167603,686.806641 
	C995.211304,690.013794 1005.443665,692.630066 1017.226257,695.920349 
	C1014.890503,722.494019 1012.431396,750.471619 1009.972229,778.449158 
	C1010.444763,778.496887 1010.917297,778.544678 1011.389771,778.592468 
	C1017.320190,750.816650 1019.701721,722.592224 1020.434998,694.082764 
	C1022.356384,694.082764 1023.606873,694.082764 1024.783325,694.082764 
	C1026.534424,725.869141 1025.115967,757.134094 1015.463257,787.825928 
	C1016.981384,787.513123 1018.103943,787.014343 1018.964661,786.228821 
	C1019.925781,785.351562 1020.649231,784.213806 1021.617981,783.013733 
	C1021.847290,785.464050 1021.407349,788.659180 1022.354248,789.143616 
	C1024.029419,790.000488 1026.548096,789.208435 1029.033447,789.091370 
	C1028.114990,790.971924 1027.039307,792.573059 1026.558594,794.336304 
	C1026.122681,795.935974 1026.334473,797.712219 1026.260620,799.410645 
	C1027.726929,798.746460 1029.616211,798.445801 1030.567383,797.338928 
	C1032.297241,795.325867 1033.469604,792.833801 1035.458984,789.588379 
	C1035.458984,794.863098 1035.458984,798.644165 1035.458984,802.598877 
	C1038.479492,800.785400 1041.198120,799.153259 1044.369751,797.249084 
	C1044.504761,798.414978 1044.673706,799.875977 1044.788574,800.867798 
	C1046.316406,798.573364 1048.025024,796.007263 1049.733765,793.441162 
	C1050.164795,793.692444 1050.595825,793.943787 1051.026733,794.195068 
	C1051.117188,795.988831 1051.207642,797.782593 1051.297974,799.576355 
	C1051.841919,799.658997 1052.385742,799.741699 1052.929565,799.824402 
	C1054.388916,794.907288 1055.848267,789.990112 1057.479614,784.493286 
	C1057.968750,785.913635 1058.209229,786.611938 1058.174072,786.510071 
	C1059.385864,785.557556 1061.194702,784.808777 1061.850342,783.487732 
	C1063.481445,780.201050 1064.728394,776.700073 1065.881226,773.203308 
	C1074.251343,747.814026 1074.343506,721.288574 1075.622559,695.071411 
	C1076.634277,674.334900 1075.273438,653.482666 1074.979370,631.745361 
M1326.866333,772.990723 
	C1326.885986,761.826172 1326.922363,750.661621 1326.917480,739.497070 
	C1326.915405,734.498474 1326.882446,729.498657 1326.772705,724.501465 
	C1326.534424,713.654968 1325.783936,702.793335 1326.176636,691.971802 
	C1326.346191,687.299988 1328.574097,682.604309 1330.446899,678.164001 
	C1330.901001,677.087158 1334.849854,676.120972 1335.159180,676.554565 
	C1338.796143,681.650391 1344.531494,682.015320 1349.712891,683.927856 
	C1358.329956,687.108704 1366.849243,688.437439 1375.492432,684.822205 
	C1378.564087,683.537415 1381.161377,681.150330 1384.052612,679.393738 
	C1388.219604,676.862122 1390.778809,671.945007 1389.827759,667.603088 
	C1384.584473,643.664612 1363.636353,626.752563 1340.526489,626.066345 
	C1324.425537,625.588257 1312.190308,633.191895 1302.292603,645.034546 
	C1299.484009,648.395081 1297.728027,649.572083 1294.936157,645.422302 
	C1294.459106,644.713196 1293.128418,644.511597 1292.148804,644.221069 
	C1290.016113,643.588440 1287.885498,642.832092 1285.698364,642.530090 
	C1283.198853,642.184998 1280.460693,641.663818 1278.149658,642.334229 
	C1275.148071,643.204773 1273.335571,645.703735 1274.005249,649.211853 
	C1274.517334,651.894531 1275.217651,654.544922 1275.644775,657.239685 
	C1277.849365,671.149048 1280.310181,685.028503 1282.050659,698.997009 
	C1283.296265,708.993958 1283.986572,719.107971 1284.140991,729.181763 
	C1284.374023,744.395996 1283.894531,759.620605 1283.805420,774.841309 
	C1283.795532,776.525940 1283.842651,778.585266 1284.744751,779.834229 
	C1288.112671,784.496521 1291.847412,788.893677 1295.915894,793.979431 
	C1298.314087,789.208740 1301.425293,789.398621 1304.326172,791.086548 
	C1309.865845,794.309998 1313.970093,791.616028 1318.043335,788.337036 
	C1322.703491,784.585632 1325.842529,779.885376 1326.866333,772.990723 
z"/>
<path fill="#004BAD" opacity="1.000000" stroke="none" 
	d="
M559.923462,716.206299 
	C555.618469,725.085022 551.222229,733.921082 547.039429,742.857056 
	C544.059937,749.222351 541.468018,755.768433 538.520874,762.149719 
	C535.166260,769.413147 531.597473,776.577454 528.142639,783.794800 
	C524.003540,792.441650 520.250366,801.297180 515.673096,809.704590 
	C509.126434,821.729248 502.335388,833.653625 494.979279,845.194153 
	C489.587372,853.653320 483.433472,861.685974 477.037262,869.427979 
	C471.467041,876.170166 465.656128,882.942078 458.922852,888.441345 
	C448.788086,896.718872 438.033295,904.326843 427.033508,911.432068 
	C414.176941,919.736816 399.899353,925.296387 385.196533,929.342834 
	C373.715576,932.502502 362.022949,935.467468 350.230896,936.778320 
	C335.152191,938.454590 319.808868,939.595520 304.709717,938.720703 
	C289.755493,937.854370 274.697571,935.220825 260.177155,931.461914 
	C246.650040,927.960205 233.199692,923.082581 220.751450,916.768433 
	C205.485825,909.025330 190.384766,900.571960 177.816605,888.441284 
	C169.959763,880.857971 160.985703,874.320984 153.813675,866.169983 
	C146.290588,857.619995 140.039490,847.888062 133.754333,838.329529 
	C127.777573,829.239990 122.044815,819.931030 117.027824,810.290222 
	C113.710670,803.915955 111.571457,796.872192 109.401009,789.972046 
	C106.644447,781.208435 103.848297,772.393677 102.075279,763.402588 
	C100.378952,754.800415 99.583740,745.965210 99.104088,737.193542 
	C98.604301,728.053772 98.265556,718.803101 99.112816,709.718140 
	C100.120705,698.910706 102.279694,688.193115 104.276779,677.499512 
	C107.269615,661.474060 113.879730,646.647888 120.536224,631.939270 
	C123.930458,624.439331 128.432327,617.360046 133.069016,610.521423 
	C140.516510,599.537048 147.940109,588.451599 156.411285,578.272217 
	C163.646835,569.577576 172.043106,561.766296 180.471283,554.169250 
	C189.414246,546.108154 198.676300,538.316467 208.396347,531.225891 
	C218.048325,524.184998 228.274353,517.877075 238.566971,511.785614 
	C246.656540,506.997894 255.160873,502.887329 263.603485,498.724487 
	C284.747772,488.298706 306.845490,480.355743 329.792664,475.095123 
	C344.312531,471.766479 359.051361,469.246338 373.800140,467.110321 
	C385.135742,465.468597 396.624847,464.727295 408.073547,464.069458 
	C420.293243,463.367340 432.558258,462.714081 444.779816,463.011566 
	C455.045685,463.261505 465.278900,464.895569 475.524017,465.941345 
	C481.844391,466.586517 488.206940,466.989929 494.467621,468.010681 
	C505.955841,469.883698 517.446167,471.840027 528.817505,474.306366 
	C540.481506,476.836212 552.180237,479.460052 563.546448,483.047974 
	C579.867432,488.199921 596.010864,493.972076 612.022827,500.027405 
	C625.076233,504.963837 638.056274,510.219696 650.648987,516.215576 
	C664.951904,523.025818 678.946411,530.533752 692.772644,538.278137 
	C702.354126,543.645020 711.630310,549.627258 720.662476,555.883789 
	C729.114380,561.738464 737.052979,568.332520 745.244507,574.565674 
	C747.586731,576.347900 750.022949,578.006653 752.223816,580.422546 
	C695.245178,568.397217 646.758057,580.456787 609.732544,628.404419 
	C607.369751,628.763000 605.291077,628.280518 603.645752,628.917419 
	C599.116089,630.670898 594.552856,631.736511 591.449036,636.781128 
	C588.561951,641.473450 583.011108,644.448914 579.019531,648.555847 
	C570.456909,657.365723 565.252197,668.036560 561.810669,679.800598 
	C558.282043,691.862732 558.866516,703.986389 559.923462,716.206299 
M364.873199,729.244690 
	C364.542572,737.894409 364.843445,746.627625 363.713287,755.171570 
	C362.446350,764.749695 365.990784,771.720093 373.069641,777.348328 
	C376.965057,780.445496 381.357452,782.912476 385.309204,785.945740 
	C388.136200,788.115662 390.105316,787.360962 392.654877,785.379517 
	C402.034210,778.090149 406.539825,768.068848 406.836395,756.784363 
	C407.395935,735.495483 407.187927,714.169312 406.659302,692.874512 
	C406.253052,676.509949 401.014648,661.810486 390.244324,648.958435 
	C369.076447,623.699158 334.109467,618.676270 307.854736,637.915344 
	C303.416962,641.167236 299.753448,645.475830 295.691925,649.334534 
	C282.695282,635.137085 267.251282,626.239746 247.951920,626.108582 
	C228.651947,625.977417 213.145401,634.481934 200.406754,649.636108 
	C197.648666,647.377075 194.298355,645.678040 192.564331,642.951172 
	C190.341965,639.456299 187.462814,639.892822 184.389755,639.750977 
	C183.568710,639.713013 182.407471,639.813354 181.996964,639.337402 
	C179.978119,636.996826 179.490875,634.246216 175.240799,638.381775 
	C170.618774,642.879272 169.556046,642.005066 170.751633,648.446411 
	C172.299225,656.784058 174.353226,665.128601 174.821182,673.546265 
	C176.068146,695.976440 176.721725,718.443604 177.323181,740.903809 
	C177.581619,750.554321 176.784622,760.235229 177.100677,769.881531 
	C177.375061,778.256287 178.668488,786.539429 187.351227,791.247986 
	C188.005127,790.327332 188.352600,789.487427 188.978058,789.017273 
	C191.978088,786.762146 194.552368,783.586975 198.860107,787.685059 
	C202.496658,791.144653 207.213089,792.825256 212.418365,790.711365 
	C216.202255,789.174622 219.904099,787.401001 223.766891,786.103210 
	C227.765167,784.759888 231.539017,780.223999 232.296219,776.163513 
	C235.600098,758.446655 232.510040,740.966919 230.489502,723.465637 
	C228.836121,709.144653 228.308807,694.946045 231.968338,680.811768 
	C235.019806,669.026062 244.806015,664.394287 255.726791,669.881409 
	C261.712494,672.888794 266.228790,677.847595 267.093109,684.221619 
	C268.693756,696.025513 269.584961,708.001343 269.674194,719.913879 
	C269.770081,732.709961 268.486725,745.511414 268.034882,758.318665 
	C267.787140,765.341553 270.106262,771.797729 275.849915,775.892395 
	C283.549072,781.381348 291.804291,786.104797 299.955109,790.929993 
	C301.169891,791.649048 303.248230,791.551636 304.703857,791.104858 
	C309.659912,789.583496 314.462463,787.558044 319.426636,786.068542 
	C323.752197,784.770691 326.841461,781.321167 327.200775,777.800598 
	C328.276855,767.256653 328.755219,756.560791 328.297729,745.974731 
	C327.752411,733.355835 325.546173,720.812317 324.901550,708.193115 
	C324.359833,697.589661 324.413055,686.853271 328.844269,676.763489 
	C331.556793,670.587219 335.697449,667.785156 342.281799,667.842163 
	C353.404114,667.938416 362.973022,677.094788 363.742828,689.376709 
	C364.554169,702.321411 364.553375,715.316956 364.873199,729.244690 
M437.138031,756.674438 
	C437.067474,762.171265 436.973114,767.667969 436.939270,773.164978 
	C436.927399,775.094360 436.343475,777.515076 437.262817,778.866333 
	C440.543335,783.688049 444.357544,788.146667 447.969757,792.742676 
	C448.256683,792.042908 448.543640,791.343079 448.830566,790.643311 
	C451.237061,790.643311 453.660767,790.463013 456.045502,790.690857 
	C458.767944,790.950928 461.898621,792.698181 464.079193,791.838745 
	C472.074036,788.687561 478.557495,783.087524 478.830078,774.021545 
	C479.355347,756.550415 479.597260,739.001709 478.507690,721.575745 
	C477.796692,710.204041 477.148376,699.003662 479.127838,687.777771 
	C480.051575,682.539124 481.287933,677.329590 486.449158,675.067078 
	C489.769287,677.532410 492.484039,680.525635 495.851044,681.813110 
	C500.588959,683.624756 505.966736,683.717590 510.785217,685.375671 
	C516.573303,687.367310 522.078735,687.432251 527.489807,684.854614 
	C530.748718,683.302185 533.723083,681.150452 536.817078,679.254578 
	C541.056396,676.656860 543.251404,671.587769 541.943542,666.978821 
	C539.709656,659.106873 536.835144,651.627686 531.339783,645.222900 
	C513.497437,624.427673 481.926819,617.761414 459.249634,640.739990 
	C456.506317,643.519714 453.917572,646.451965 451.270691,649.298950 
	C446.253448,644.609009 446.237701,644.848389 440.579498,644.476074 
	C437.682831,644.285461 436.121552,638.283264 431.550995,642.939087 
	C430.288544,644.225037 427.579132,644.653687 427.777466,647.152405 
	C428.141602,651.738892 428.782959,656.322083 429.619141,660.849304 
	C435.412445,692.215820 438.934021,723.756104 437.138031,756.674438 
M364.628235,883.324341 
	C337.891815,890.884216 311.335815,889.810547 284.991547,881.465210 
	C261.773560,874.110229 241.683685,861.322571 223.341339,845.552490 
	C221.414307,843.895630 219.125351,841.017700 216.655716,844.076721 
	C214.260452,847.043518 217.392197,848.922974 219.417465,850.434753 
	C228.873886,857.493347 237.991699,865.138611 248.033936,871.255127 
	C282.875427,892.475952 320.398499,899.787537 360.579254,890.938110 
	C389.717102,884.520813 414.615967,869.934753 436.949005,850.601257 
	C439.098145,848.740662 443.637970,846.888367 440.653229,843.330994 
	C437.453156,839.516846 435.108276,844.161377 433.030457,845.912354 
	C412.958160,862.827942 390.997131,876.236938 364.628235,883.324341 
M204.912506,841.530029 
	C203.992493,847.872559 204.327118,849.536987 206.691010,851.835571 
	C209.090118,847.573853 210.821320,842.499939 214.206573,839.048035 
	C217.582657,835.605652 222.616699,833.789307 226.883682,831.283630 
	C220.941483,825.788147 208.005722,830.721985 204.912506,841.530029 
M435.290070,829.502808 
	C433.918091,830.061523 432.546082,830.620239 431.174103,831.179016 
	C442.577820,834.272949 448.943481,841.511658 451.673798,852.601440 
	C455.022980,847.445801 454.776947,842.577515 452.128296,837.855103 
	C448.645691,831.645874 443.289551,828.625000 435.290070,829.502808 
z"/>
<path fill="#FAFDFE" opacity="1.000000" stroke="none" 
	d="
M560.022705,716.496582 
	C558.866516,703.986389 558.282043,691.862732 561.810669,679.800598 
	C565.252197,668.036560 570.456909,657.365723 579.019531,648.555847 
	C583.011108,644.448914 588.561951,641.473450 591.449036,636.781128 
	C594.552856,631.736511 599.116089,630.670898 603.645752,628.917419 
	C605.291077,628.280518 607.369751,628.763000 609.711792,628.788330 
	C618.038086,628.597107 624.815186,630.614807 628.653137,638.200073 
	C631.356140,643.542297 631.685791,648.673828 629.242065,654.654785 
	C625.545288,663.702454 617.856934,671.697449 621.442810,683.591919 
	C616.149841,680.617249 612.764160,682.193176 609.691223,685.559753 
	C604.624329,691.110901 600.881287,697.803345 602.337097,705.004761 
	C603.517090,710.842041 607.224792,716.547913 611.021057,721.357300 
	C614.084045,725.237610 618.807251,727.916809 623.078430,730.690613 
	C625.401184,732.199097 627.858826,731.509033 629.021729,728.556274 
	C633.735046,716.589172 638.504395,704.643555 643.111206,692.635498 
	C645.504028,686.398315 647.266541,679.902527 649.919556,673.786316 
	C652.926514,666.853943 655.998718,659.814087 660.118652,653.526001 
	C671.644836,635.933960 695.390137,635.181030 708.773376,652.837402 
	C715.884583,662.219116 719.367798,673.377136 722.861328,684.458923 
	C727.571533,699.400024 731.992554,714.444763 737.213562,729.205933 
	C739.132202,734.630188 742.814758,739.478088 745.994385,744.393738 
	C748.522705,748.302490 753.667297,748.891296 756.408325,745.017883 
	C760.303223,739.514160 764.013550,733.594971 766.312683,727.308350 
	C770.640442,715.474854 774.399963,703.376587 777.469604,691.155884 
	C780.569153,678.816101 782.428101,666.169189 785.086243,653.711426 
	C785.880127,649.990601 787.534119,646.453369 788.845337,642.684570 
	C797.232239,647.516541 797.331238,655.594788 798.698059,662.813232 
	C802.313660,681.908142 803.779724,701.208313 802.925476,720.650146 
	C802.158447,738.106323 799.012329,754.992859 788.861328,769.651855 
	C779.629211,782.983765 767.096863,790.608337 750.438660,792.391479 
	C744.090149,793.071045 738.261414,793.925537 732.364807,791.535339 
	C718.536377,785.929871 707.344055,776.981384 699.816223,764.038269 
	C694.175903,754.340576 689.223938,744.242615 683.919617,734.236084 
	C681.335327,739.331482 678.815796,744.980530 675.707275,750.284302 
	C669.480286,760.909119 661.694275,770.166199 650.550537,776.001892 
	C634.537170,784.387756 618.670715,782.411865 603.676575,773.828491 
	C587.953308,764.827820 576.172485,751.478149 567.310791,735.825623 
	C564.008301,729.992432 562.466492,723.162415 560.022705,716.496582 
z"/>
<path fill="#FAFDFE" opacity="1.000000" stroke="none" 
	d="
M928.293884,785.722778 
	C923.944031,780.031128 919.849304,774.589722 916.033203,769.518555 
	C909.959961,773.680115 904.244324,778.548035 897.733276,781.845581 
	C886.699524,787.433655 874.892700,786.860291 863.261658,783.467957 
	C839.405212,776.510010 827.042358,759.532288 823.096252,735.895935 
	C819.066406,711.757385 823.430054,688.726807 834.222229,666.947876 
	C838.218140,658.884155 843.430603,651.590698 850.638000,645.798950 
	C857.070129,640.630066 862.733032,634.479614 869.302734,629.512695 
	C876.301514,624.221436 883.984802,622.319092 893.076599,625.509949 
	C897.959961,627.223694 903.889343,625.876343 909.338623,626.103455 
	C911.159790,626.179382 913.940125,624.828979 914.242249,628.516296 
	C914.265747,628.803162 916.272644,629.036621 917.369934,629.109497 
	C928.012085,629.816406 931.059326,638.076721 929.986877,647.250244 
	C929.254700,653.512390 925.198853,657.516602 921.917236,661.893188 
	C919.616150,664.962219 914.927673,666.120056 912.058960,668.907043 
	C902.842041,677.861572 893.085388,686.484131 885.243958,696.562805 
	C878.531860,705.190002 875.863525,716.068542 878.634094,727.302917 
	C880.164307,733.507874 884.191956,735.949280 890.064941,733.871887 
	C897.900818,731.100342 904.219482,725.586792 907.605469,718.232239 
	C909.333679,714.478271 907.273376,709.117920 907.525757,704.516663 
	C907.991272,696.027527 908.847107,687.557373 909.691284,679.094421 
	C909.793701,678.067566 910.629517,676.899536 911.461914,676.194153 
	C917.501099,671.077148 923.507935,665.908081 929.775085,661.080017 
	C932.901367,658.671692 941.966858,660.978699 944.469543,665.416260 
	C947.296509,670.428711 949.406067,676.042175 950.719543,681.653687 
	C951.906860,686.726196 951.944092,692.151917 951.887695,697.415466 
	C951.731262,712.015808 951.294006,726.613586 950.904846,741.210693 
	C950.630737,751.492554 950.638062,761.803406 949.791931,772.041138 
	C949.194458,779.271301 952.796143,783.413086 958.033569,787.155457 
	C961.204956,789.421570 964.114990,792.053406 967.373169,794.708984 
	C954.603394,800.622192 940.147339,797.201355 928.293884,785.722778 
z"/>
<path fill="#FAFDFE" opacity="1.000000" stroke="none" 
	d="
M1245.503418,731.509949 
	C1238.785156,752.215210 1228.700073,770.635193 1208.738892,781.352661 
	C1196.940552,787.687317 1184.361206,791.729248 1170.484131,791.019714 
	C1155.377319,790.247131 1142.473022,784.916443 1130.391479,775.924072 
	C1117.832031,766.576111 1109.915771,754.104248 1104.115723,740.205017 
	C1101.324951,733.517456 1099.937866,725.997009 1099.247803,718.727173 
	C1097.308960,698.301147 1101.971680,679.416870 1113.418701,662.114929 
	C1125.883057,643.275085 1142.453491,630.761475 1165.046265,627.455139 
	C1169.735352,626.768921 1175.040527,627.691223 1179.602661,629.231750 
	C1192.759521,633.674500 1204.238892,641.154602 1211.810913,652.923340 
	C1215.394897,658.493591 1216.606201,665.595825 1218.839600,672.022278 
	C1219.104980,672.785461 1218.714966,673.994141 1219.171753,674.439880 
	C1224.646851,679.783020 1220.396729,685.518921 1219.908081,691.061646 
	C1219.307251,697.876648 1216.811523,704.148438 1212.817627,709.568115 
	C1210.455566,712.773438 1207.223755,715.551575 1203.883179,717.768799 
	C1199.549805,720.644897 1194.899902,723.231018 1190.067627,725.132263 
	C1176.866211,730.326172 1161.282715,723.545532 1156.497681,708.514343 
	C1155.212524,704.476868 1159.207153,700.522339 1163.034302,698.068420 
	C1164.667847,697.020935 1166.534546,696.327026 1168.321167,695.530396 
	C1172.226807,693.788818 1173.380371,691.019348 1171.799072,686.992920 
	C1171.445679,686.093323 1171.672241,684.946167 1171.712769,683.916199 
	C1171.783936,682.109314 1172.712524,679.501709 1171.864014,678.661743 
	C1169.920898,676.738281 1167.494141,676.916382 1165.058105,679.064636 
	C1158.535522,684.816467 1154.782959,692.249878 1151.947388,700.151123 
	C1147.205688,713.362732 1150.907593,725.160767 1159.196777,735.725159 
	C1164.749756,742.802124 1171.994385,746.459290 1181.258789,744.137390 
	C1187.405396,742.596985 1193.646240,741.256409 1199.588257,739.114868 
	C1210.027222,735.352783 1216.657349,726.938416 1223.231567,718.558289 
	C1224.084717,717.470825 1225.466675,716.798157 1226.603638,715.933289 
	C1226.972778,716.357849 1227.342041,716.782410 1227.711182,717.206909 
	C1228.956665,715.236572 1230.202026,713.266235 1231.447510,711.295959 
	C1231.694702,711.421448 1231.941772,711.546997 1232.188965,711.672546 
	C1231.294067,713.715454 1230.399170,715.758362 1229.329590,718.200195 
	C1230.448486,718.297302 1231.418579,718.381470 1233.379395,718.551575 
	C1231.780762,721.870789 1230.298950,724.947388 1228.463745,728.441772 
	C1227.829712,729.562500 1227.549072,730.265442 1227.268433,730.968445 
	C1227.977051,730.652222 1228.685669,730.335938 1229.394287,730.019653 
	C1231.725464,727.723267 1234.056519,725.426941 1236.956909,723.287476 
	C1237.526123,725.159119 1237.526123,726.873779 1237.526123,729.028625 
	C1239.965576,728.018616 1241.369507,727.437256 1241.961304,727.192200 
	C1243.464966,729.025085 1244.484253,730.267517 1245.503418,731.509949 
M1228.016479,719.279846 
	C1228.016479,720.429810 1228.016479,721.579712 1228.016479,722.729675 
	C1227.851562,721.304260 1232.522095,720.224365 1228.016479,719.279846 
M1237.518066,730.393555 
	C1237.518066,730.393555 1237.596191,730.520325 1237.518066,730.393555 
z"/>
<path fill="#F5FCFE" opacity="1.000000" stroke="none" 
	d="
M1074.972778,632.213623 
	C1075.273438,653.482666 1076.634277,674.334900 1075.622559,695.071411 
	C1074.343506,721.288574 1074.251343,747.814026 1065.881226,773.203308 
	C1064.728394,776.700073 1063.481445,780.201050 1061.850342,783.487732 
	C1061.194702,784.808777 1059.385864,785.557556 1058.174072,786.510071 
	C1058.209229,786.611938 1057.968750,785.913635 1057.479614,784.493286 
	C1055.848267,789.990112 1054.388916,794.907288 1052.929565,799.824402 
	C1052.385742,799.741699 1051.841919,799.658997 1051.297974,799.576355 
	C1051.207642,797.782593 1051.117188,795.988831 1051.026733,794.195068 
	C1050.595825,793.943787 1050.164795,793.692444 1049.733765,793.441162 
	C1048.025024,796.007263 1046.316406,798.573364 1044.788574,800.867798 
	C1044.673706,799.875977 1044.504761,798.414978 1044.369751,797.249084 
	C1041.198120,799.153259 1038.479492,800.785400 1035.458984,802.598877 
	C1035.458984,798.644165 1035.458984,794.863098 1035.458984,789.588379 
	C1033.469604,792.833801 1032.297241,795.325867 1030.567383,797.338928 
	C1029.616211,798.445801 1027.726929,798.746460 1026.260742,799.410645 
	C1026.334473,797.712219 1026.122681,795.935974 1026.558594,794.336304 
	C1027.039307,792.573059 1028.114990,790.971924 1029.033447,789.091370 
	C1026.548096,789.208435 1024.029419,790.000488 1022.354248,789.143616 
	C1021.407349,788.659180 1021.847290,785.464050 1021.617981,783.013733 
	C1020.649231,784.213806 1019.925781,785.351562 1018.964661,786.228821 
	C1018.103943,787.014343 1016.981384,787.513123 1015.463257,787.825928 
	C1025.115967,757.134094 1026.534424,725.869141 1024.783325,694.082764 
	C1023.606873,694.082764 1022.356384,694.082764 1020.434998,694.082764 
	C1019.701721,722.592224 1017.320190,750.816650 1011.389771,778.592468 
	C1010.917297,778.544678 1010.444763,778.496887 1009.972229,778.449158 
	C1012.431396,750.471619 1014.890503,722.494019 1017.226257,695.920349 
	C1005.443665,692.630066 995.211304,690.013794 985.167603,686.806641 
	C982.497009,685.953918 979.897644,683.673157 978.153687,681.374390 
	C974.543274,676.615234 976.063721,673.449768 981.710266,670.969238 
	C986.794128,668.735840 991.494141,665.640869 996.529053,663.278625 
	C998.876648,662.177185 1001.604858,661.443542 1004.179749,661.384705 
	C1007.234375,661.315063 1010.309631,662.151794 1013.216919,662.572754 
	C1014.113708,660.754211 1014.778198,659.406921 1015.497314,657.948669 
	C1017.488586,659.703247 1019.138611,661.157166 1020.788635,662.611145 
	C1021.215576,662.311646 1021.642517,662.012146 1022.069397,661.712585 
	C1021.025085,653.382935 1020.046021,645.043884 1018.855774,636.735046 
	C1018.702881,635.667480 1017.441711,634.765381 1016.715027,633.771179 
	C1016.173523,633.030396 1015.264282,632.290894 1015.213196,631.505615 
	C1014.998352,628.205078 1014.809326,624.871033 1015.039490,621.579224 
	C1015.731934,611.674438 1018.713867,603.040588 1026.985596,596.423950 
	C1035.812256,589.363342 1045.688477,587.452942 1056.475708,587.992676 
	C1065.023804,588.420471 1078.303223,600.705261 1079.054077,610.964966 
	C1079.342896,614.910278 1078.459839,618.187561 1076.667725,621.738647 
	C1075.211792,624.623535 1075.477295,628.377075 1074.972778,632.213623 
z"/>
<path fill="#FAFDFE" opacity="1.000000" stroke="none" 
	d="
M1326.832031,773.433899 
	C1325.842529,779.885376 1322.703491,784.585632 1318.043335,788.337036 
	C1313.970093,791.616028 1309.865845,794.309998 1304.326172,791.086548 
	C1301.425293,789.398621 1298.314087,789.208740 1295.915894,793.979431 
	C1291.847412,788.893677 1288.112671,784.496521 1284.744751,779.834229 
	C1283.842651,778.585266 1283.795532,776.525940 1283.805420,774.841309 
	C1283.894531,759.620605 1284.374023,744.395996 1284.140991,729.181763 
	C1283.986572,719.107971 1283.296265,708.993958 1282.050659,698.997009 
	C1280.310181,685.028503 1277.849365,671.149048 1275.644775,657.239685 
	C1275.217651,654.544922 1274.517334,651.894531 1274.005249,649.211853 
	C1273.335571,645.703735 1275.148071,643.204773 1278.149658,642.334229 
	C1280.460693,641.663818 1283.198853,642.184998 1285.698364,642.530090 
	C1287.885498,642.832092 1290.016113,643.588440 1292.148804,644.221069 
	C1293.128418,644.511597 1294.459106,644.713196 1294.936157,645.422302 
	C1297.728027,649.572083 1299.484009,648.395081 1302.292603,645.034546 
	C1312.190308,633.191895 1324.425537,625.588257 1340.526489,626.066345 
	C1363.636353,626.752563 1384.584473,643.664612 1389.827759,667.603088 
	C1390.778809,671.945007 1388.219604,676.862122 1384.052612,679.393738 
	C1381.161377,681.150330 1378.564087,683.537415 1375.492432,684.822205 
	C1366.849243,688.437439 1358.329956,687.108704 1349.712891,683.927856 
	C1344.531494,682.015320 1338.796143,681.650391 1335.159180,676.554565 
	C1334.849854,676.120972 1330.901001,677.087158 1330.446899,678.164001 
	C1328.574097,682.604309 1326.346191,687.299988 1326.176636,691.971802 
	C1325.783936,702.793335 1326.534424,713.654968 1326.772705,724.501465 
	C1326.882446,729.498657 1326.915405,734.498474 1326.917480,739.497070 
	C1326.922363,750.661621 1326.885986,761.826172 1326.832031,773.433899 
z"/>
<path fill="#F5FCFE" opacity="1.000000" stroke="none" 
	d="
M1245.674927,731.208252 
	C1244.484253,730.267517 1243.464966,729.025085 1241.961304,727.192200 
	C1241.369507,727.437256 1239.965576,728.018616 1237.526123,729.028625 
	C1237.526123,726.873779 1237.526123,725.159119 1237.302490,723.210693 
	C1239.279419,717.980286 1241.479858,712.983704 1243.680420,707.987061 
	C1243.788696,707.982117 1243.897095,707.977173 1244.005493,707.972290 
	C1242.770874,712.533386 1241.536133,717.094482 1240.301514,721.655640 
	C1240.678711,721.759583 1241.056030,721.863525 1241.433350,721.967468 
	C1242.696289,719.171326 1243.959351,716.375183 1245.406006,713.172302 
	C1245.776123,714.495667 1245.993530,715.272888 1246.242188,716.161865 
	C1247.083984,715.580627 1247.839844,715.058838 1248.595581,714.537048 
	C1248.837769,714.656921 1249.079834,714.776733 1249.322021,714.896606 
	C1248.063599,717.470886 1246.805298,720.045227 1245.846436,722.006775 
	C1245.846436,725.214478 1245.846436,728.060486 1245.674927,731.208252 
z"/>
<path fill="#FDFEFE" opacity="1.000000" stroke="none" 
	d="
M364.890320,728.767456 
	C364.553375,715.316956 364.554169,702.321411 363.742828,689.376709 
	C362.973022,677.094788 353.404114,667.938416 342.281799,667.842163 
	C335.697449,667.785156 331.556793,670.587219 328.844269,676.763489 
	C324.413055,686.853271 324.359833,697.589661 324.901550,708.193115 
	C325.546173,720.812317 327.752411,733.355835 328.297729,745.974731 
	C328.755219,756.560791 328.276855,767.256653 327.200775,777.800598 
	C326.841461,781.321167 323.752197,784.770691 319.426636,786.068542 
	C314.462463,787.558044 309.659912,789.583496 304.703857,791.104858 
	C303.248230,791.551636 301.169891,791.649048 299.955109,790.929993 
	C291.804291,786.104797 283.549072,781.381348 275.849915,775.892395 
	C270.106262,771.797729 267.787140,765.341553 268.034882,758.318665 
	C268.486725,745.511414 269.770081,732.709961 269.674194,719.913879 
	C269.584961,708.001343 268.693756,696.025513 267.093109,684.221619 
	C266.228790,677.847595 261.712494,672.888794 255.726791,669.881409 
	C244.806015,664.394287 235.019806,669.026062 231.968338,680.811768 
	C228.308807,694.946045 228.836121,709.144653 230.489502,723.465637 
	C232.510040,740.966919 235.600098,758.446655 232.296219,776.163513 
	C231.539017,780.223999 227.765167,784.759888 223.766891,786.103210 
	C219.904099,787.401001 216.202255,789.174622 212.418365,790.711365 
	C207.213089,792.825256 202.496658,791.144653 198.860107,787.685059 
	C194.552368,783.586975 191.978088,786.762146 188.978058,789.017273 
	C188.352600,789.487427 188.005127,790.327332 187.351227,791.247986 
	C178.668488,786.539429 177.375061,778.256287 177.100677,769.881531 
	C176.784622,760.235229 177.581619,750.554321 177.323181,740.903809 
	C176.721725,718.443604 176.068146,695.976440 174.821182,673.546265 
	C174.353226,665.128601 172.299225,656.784058 170.751633,648.446411 
	C169.556046,642.005066 170.618774,642.879272 175.240799,638.381775 
	C179.490875,634.246216 179.978119,636.996826 181.996964,639.337402 
	C182.407471,639.813354 183.568710,639.713013 184.389755,639.750977 
	C187.462814,639.892822 190.341965,639.456299 192.564331,642.951172 
	C194.298355,645.678040 197.648666,647.377075 200.406754,649.636108 
	C213.145401,634.481934 228.651947,625.977417 247.951920,626.108582 
	C267.251282,626.239746 282.695282,635.137085 295.691925,649.334534 
	C299.753448,645.475830 303.416962,641.167236 307.854736,637.915344 
	C334.109467,618.676270 369.076447,623.699158 390.244324,648.958435 
	C401.014648,661.810486 406.253052,676.509949 406.659302,692.874512 
	C407.187927,714.169312 407.395935,735.495483 406.836395,756.784363 
	C406.539825,768.068848 402.034210,778.090149 392.654877,785.379517 
	C390.105316,787.360962 388.136200,788.115662 385.309204,785.945740 
	C381.357452,782.912476 376.965057,780.445496 373.069641,777.348328 
	C365.990784,771.720093 362.446350,764.749695 363.713287,755.171570 
	C364.843445,746.627625 364.542572,737.894409 364.890320,728.767456 
z"/>
<path fill="#FDFEFE" opacity="1.000000" stroke="none" 
	d="
M437.167175,756.197571 
	C438.934021,723.756104 435.412445,692.215820 429.619141,660.849304 
	C428.782959,656.322083 428.141602,651.738892 427.777466,647.152405 
	C427.579132,644.653687 430.288544,644.225037 431.550995,642.939087 
	C436.121552,638.283264 437.682831,644.285461 440.579498,644.476074 
	C446.237701,644.848389 446.253448,644.609009 451.270691,649.298950 
	C453.917572,646.451965 456.506317,643.519714 459.249634,640.739990 
	C481.926819,617.761414 513.497437,624.427673 531.339783,645.222900 
	C536.835144,651.627686 539.709656,659.106873 541.943542,666.978821 
	C543.251404,671.587769 541.056396,676.656860 536.817078,679.254578 
	C533.723083,681.150452 530.748718,683.302185 527.489807,684.854614 
	C522.078735,687.432251 516.573303,687.367310 510.785217,685.375671 
	C505.966736,683.717590 500.588959,683.624756 495.851044,681.813110 
	C492.484039,680.525635 489.769287,677.532410 486.449158,675.067078 
	C481.287933,677.329590 480.051575,682.539124 479.127838,687.777771 
	C477.148376,699.003662 477.796692,710.204041 478.507690,721.575745 
	C479.597260,739.001709 479.355347,756.550415 478.830078,774.021545 
	C478.557495,783.087524 472.074036,788.687561 464.079193,791.838745 
	C461.898621,792.698181 458.767944,790.950928 456.045502,790.690857 
	C453.660767,790.463013 451.237061,790.643311 448.830566,790.643311 
	C448.543640,791.343079 448.256683,792.042908 447.969757,792.742676 
	C444.357544,788.146667 440.543335,783.688049 437.262817,778.866333 
	C436.343475,777.515076 436.927399,775.094360 436.939270,773.164978 
	C436.973114,767.667969 437.067474,762.171265 437.167175,756.197571 
z"/>
<path fill="#F5FCFE" opacity="1.000000" stroke="none" 
	d="
M365.021606,883.213623 
	C390.997131,876.236938 412.958160,862.827942 433.030457,845.912354 
	C435.108276,844.161377 437.453156,839.516846 440.653229,843.330994 
	C443.637970,846.888367 439.098145,848.740662 436.949005,850.601257 
	C414.615967,869.934753 389.717102,884.520813 360.579254,890.938110 
	C320.398499,899.787537 282.875427,892.475952 248.033936,871.255127 
	C237.991699,865.138611 228.873886,857.493347 219.417465,850.434753 
	C217.392197,848.922974 214.260452,847.043518 216.655716,844.076721 
	C219.125351,841.017700 221.414307,843.895630 223.341339,845.552490 
	C241.683685,861.322571 261.773560,874.110229 284.991547,881.465210 
	C311.335815,889.810547 337.891815,890.884216 365.021606,883.213623 
z"/>
<path fill="#F5FCFE" opacity="1.000000" stroke="none" 
	d="
M204.979630,841.143188 
	C208.005722,830.721985 220.941483,825.788147 226.883682,831.283630 
	C222.616699,833.789307 217.582657,835.605652 214.206573,839.048035 
	C210.821320,842.499939 209.090118,847.573853 206.691010,851.835571 
	C204.327118,849.536987 203.992493,847.872559 204.979630,841.143188 
z"/>
<path fill="#F5FCFE" opacity="1.000000" stroke="none" 
	d="
M435.673737,829.393921 
	C443.289551,828.625000 448.645691,831.645874 452.128296,837.855103 
	C454.776947,842.577515 455.022980,847.445801 451.673798,852.601440 
	C448.943481,841.511658 442.577820,834.272949 431.174103,831.179016 
	C432.546082,830.620239 433.918091,830.061523 435.673737,829.393921 
z"/>
<path fill="#000000" opacity="1.000000" stroke="none" 
	d="
M1228.364746,718.946411 
	C1232.522095,720.224365 1227.851562,721.304260 1228.016479,722.729675 
	C1228.016479,721.579712 1228.016479,720.429810 1228.364746,718.946411 
z"/>
<path fill="#000000" opacity="1.000000" stroke="none" 
	d="
M1229.281738,729.685913 
	C1228.685669,730.335938 1227.977051,730.652222 1227.268433,730.968445 
	C1227.549072,730.265442 1227.829712,729.562500 1228.463501,728.801025 
	C1228.934326,728.945740 1229.051880,729.148987 1229.281738,729.685913 
z"/>
<path fill="#F5FCFE" opacity="1.000000" stroke="none" 
	d="
M1237.557129,730.456909 
	C1237.596191,730.520325 1237.518066,730.393555 1237.557129,730.456909 
z"/>
</svg>